<svg version="1.1" xmlns="http://www.w3.org/2000/svg" viewBox="0 0 2182.000184740339 905.4285212925498" width="2182.000184740339" height="905.4285212925498">
  <!-- svg-source:excalidraw -->
  
  <defs>
    <style class="style-fonts">
      @font-face {
        font-family: "Virgil";
        src: url("https://excalidraw.com/Virgil.woff2");
      }
      @font-face {
        font-family: "Cascadia";
        src: url("https://excalidraw.com/Cascadia.woff2");
      }
    </style>
  </defs>
  <rect x="0" y="0" width="2182.000184740339" height="905.4285212925498" fill="#ffffff"></rect><g stroke-linecap="round" transform="translate(1490.0316071888753 46.97221544053821) rotate(0 330.9285714285717 273.5714285714286)"><path d="M32 0 M32 0 C190.68 1.96, 348.48 1.22, 629.86 0 M32 0 C208.77 -0.89, 385.29 -0.71, 629.86 0 M629.86 0 C650.33 -1.23, 662.08 8.68, 661.86 32 M629.86 0 C649.31 -1.33, 662.07 9.65, 661.86 32 M661.86 32 C661.03 198.42, 660.37 363.08, 661.86 515.14 M661.86 32 C660.42 213.6, 660.44 395.47, 661.86 515.14 M661.86 515.14 C661.76 537.95, 649.7 546.53, 629.86 547.14 M661.86 515.14 C663.11 537.81, 650.85 545.78, 629.86 547.14 M629.86 547.14 C413.15 547.1, 195.83 548.02, 32 547.14 M629.86 547.14 C492.16 545.89, 354.79 545.83, 32 547.14 M32 547.14 C11.4 546.26, 1.07 535.81, 0 515.14 M32 547.14 C12.04 546.37, -2.26 537.47, 0 515.14 M0 515.14 C0.59 378.61, 0.21 241.69, 0 32 M0 515.14 C1.68 339.98, 1.47 165.05, 0 32 M0 32 C0.22 12.42, 10.05 -0.12, 32 0 M0 32 C-1.32 11.29, 12.8 0.89, 32 0" stroke="#5c940d" stroke-width="1" fill="none"></path></g><g stroke-linecap="round" transform="translate(1541.5871898711669 319.86107720269104) rotate(0 296 65)"><path d="M32 0 M32 0 C205.57 -1.07, 378.08 -0.78, 560 0 M32 0 C144.6 -0.7, 257.68 -0.89, 560 0 M560 0 C580.1 0.22, 590.01 9.03, 592 32 M560 0 C580.01 0.22, 590.99 11.65, 592 32 M592 32 C593.35 47.37, 590.93 66, 592 98 M592 32 C592.28 47.08, 592.67 60.98, 592 98 M592 98 C593.48 117.84, 580.72 131.09, 560 130 M592 98 C593.33 118.99, 579.97 131.45, 560 130 M560 130 C366.61 130.46, 174.69 130.05, 32 130 M560 130 C429.77 130.2, 299.32 130.05, 32 130 M32 130 C9.78 131.07, -0.67 120.53, 0 98 M32 130 C9.9 127.74, 0.99 118.95, 0 98 M0 98 C0.95 79.33, 1.07 64.35, 0 32 M0 98 C-0.45 82.75, 0.17 66.94, 0 32 M0 32 C1.75 10.05, 10.55 -1.14, 32 0 M0 32 C0.63 12.8, 11.56 1.25, 32 0" stroke="#a61e4d" stroke-width="2" fill="none"></path></g><g transform="translate(1546.5871898711669 324.86107720269104) rotate(0 257.8125 60)"><text x="0" y="0" font-family="Cascadia, Segoe UI Emoji" font-size="20px" fill="#c92a2a" text-anchor="start" style="white-space: pre;" direction="ltr" dominant-baseline="text-before-edge">mount(container){</text><text x="0" y="24" font-family="Cascadia, Segoe UI Emoji" font-size="20px" fill="#c92a2a" text-anchor="start" style="white-space: pre;" direction="ltr" dominant-baseline="text-before-edge">    const vnode = createVNode(rootComponent)</text><text x="0" y="48" font-family="Cascadia, Segoe UI Emoji" font-size="20px" fill="#c92a2a" text-anchor="start" style="white-space: pre;" direction="ltr" dominant-baseline="text-before-edge">    render(vnode, container)</text><text x="0" y="72" font-family="Cascadia, Segoe UI Emoji" font-size="20px" fill="#c92a2a" text-anchor="start" style="white-space: pre;" direction="ltr" dominant-baseline="text-before-edge">    app._container = rootContainer</text><text x="0" y="96" font-family="Cascadia, Segoe UI Emoji" font-size="20px" fill="#c92a2a" text-anchor="start" style="white-space: pre;" direction="ltr" dominant-baseline="text-before-edge">},</text></g><g stroke-linecap="round" transform="translate(1544.63476241581 459.9246167379713) rotate(0 215.1111518012151 42.19999999999999)"><path d="M21.1 0 M21.1 0 C150.63 0.85, 280.32 1.2, 409.12 0 M21.1 0 C150.57 -0.35, 280 -0.03, 409.12 0 M409.12 0 C421.2 -1.64, 429.07 7.22, 430.22 21.1 M409.12 0 C422.17 0.99, 428.98 5.89, 430.22 21.1 M430.22 21.1 C429.83 36.68, 428.98 50.79, 430.22 63.3 M430.22 21.1 C430.27 35.84, 430.86 49.93, 430.22 63.3 M430.22 63.3 C429.61 78.46, 424.35 84.11, 409.12 84.4 M430.22 63.3 C428.86 78.81, 424.69 84.89, 409.12 84.4 M409.12 84.4 C282.12 83.16, 153.42 83.28, 21.1 84.4 M409.12 84.4 C294.61 86.3, 179.55 86.4, 21.1 84.4 M21.1 84.4 C6.36 85.6, -0.67 75.41, 0 63.3 M21.1 84.4 C8.02 84.02, -0.82 77.67, 0 63.3 M0 63.3 C0.94 52.61, -1.5 40.97, 0 21.1 M0 63.3 C0.66 47.26, 0.85 30.68, 0 21.1 M0 21.1 C-0.12 5.89, 7.58 1.86, 21.1 0 M0 21.1 C0.89 8.29, 9.24 -0.4, 21.1 0" stroke="#a61e4d" stroke-width="2" fill="none"></path></g><g transform="translate(1549.63476241581 466.1246167379712) rotate(0 187.5 36)"><text x="0" y="0" font-family="Cascadia, Segoe UI Emoji" font-size="20px" fill="#c92a2a" text-anchor="start" style="white-space: pre;" direction="ltr" dominant-baseline="text-before-edge">unmount(){</text><text x="0" y="24" font-family="Cascadia, Segoe UI Emoji" font-size="20px" fill="#c92a2a" text-anchor="start" style="white-space: pre;" direction="ltr" dominant-baseline="text-before-edge">    render(null, app._container)</text><text x="0" y="48" font-family="Cascadia, Segoe UI Emoji" font-size="20px" fill="#c92a2a" text-anchor="start" style="white-space: pre;" direction="ltr" dominant-baseline="text-before-edge">}</text></g><g transform="translate(1496.380832914322 70.97222706628224) rotate(0 270.234375 252)"><text x="0" y="0" font-family="Cascadia, Segoe UI Emoji" font-size="20px" fill="#5c940d" text-anchor="start" style="white-space: pre;" direction="ltr" dominant-baseline="text-before-edge">const app = {</text><text x="0" y="24" font-family="Cascadia, Segoe UI Emoji" font-size="20px" fill="#5c940d" text-anchor="start" style="white-space: pre;" direction="ltr" dominant-baseline="text-before-edge">    version,</text><text x="0" y="48" font-family="Cascadia, Segoe UI Emoji" font-size="20px" fill="#5c940d" text-anchor="start" style="white-space: pre;" direction="ltr" dominant-baseline="text-before-edge">    _uid,</text><text x="0" y="72" font-family="Cascadia, Segoe UI Emoji" font-size="20px" fill="#5c940d" text-anchor="start" style="white-space: pre;" direction="ltr" dominant-baseline="text-before-edge">    _component:rootComponent, // 传入的 App.vue</text><text x="0" y="96" font-family="Cascadia, Segoe UI Emoji" font-size="20px" fill="#5c940d" text-anchor="start" style="white-space: pre;" direction="ltr" dominant-baseline="text-before-edge">    config, // getter和setter</text><text x="0" y="120" font-family="Cascadia, Segoe UI Emoji" font-size="20px" fill="#5c940d" text-anchor="start" style="white-space: pre;" direction="ltr" dominant-baseline="text-before-edge">    use(){},</text><text x="0" y="144" font-family="Cascadia, Segoe UI Emoji" font-size="20px" fill="#5c940d" text-anchor="start" style="white-space: pre;" direction="ltr" dominant-baseline="text-before-edge">    mixin(){},</text><text x="0" y="168" font-family="Cascadia, Segoe UI Emoji" font-size="20px" fill="#5c940d" text-anchor="start" style="white-space: pre;" direction="ltr" dominant-baseline="text-before-edge">    component(){},</text><text x="0" y="192" font-family="Cascadia, Segoe UI Emoji" font-size="20px" fill="#5c940d" text-anchor="start" style="white-space: pre;" direction="ltr" dominant-baseline="text-before-edge">    directive(){},</text><text x="0" y="216" font-family="Cascadia, Segoe UI Emoji" font-size="20px" fill="#5c940d" text-anchor="start" style="white-space: pre;" direction="ltr" dominant-baseline="text-before-edge">    provide(){},</text><text x="0" y="240" font-family="Cascadia, Segoe UI Emoji" font-size="20px" fill="#5c940d" text-anchor="start" style="white-space: pre;" direction="ltr" dominant-baseline="text-before-edge">    </text><text x="0" y="264" font-family="Cascadia, Segoe UI Emoji" font-size="20px" fill="#5c940d" text-anchor="start" style="white-space: pre;" direction="ltr" dominant-baseline="text-before-edge">    </text><text x="0" y="288" font-family="Cascadia, Segoe UI Emoji" font-size="20px" fill="#5c940d" text-anchor="start" style="white-space: pre;" direction="ltr" dominant-baseline="text-before-edge">    </text><text x="0" y="312" font-family="Cascadia, Segoe UI Emoji" font-size="20px" fill="#5c940d" text-anchor="start" style="white-space: pre;" direction="ltr" dominant-baseline="text-before-edge"></text><text x="0" y="336" font-family="Cascadia, Segoe UI Emoji" font-size="20px" fill="#5c940d" text-anchor="start" style="white-space: pre;" direction="ltr" dominant-baseline="text-before-edge"></text><text x="0" y="360" font-family="Cascadia, Segoe UI Emoji" font-size="20px" fill="#5c940d" text-anchor="start" style="white-space: pre;" direction="ltr" dominant-baseline="text-before-edge"></text><text x="0" y="384" font-family="Cascadia, Segoe UI Emoji" font-size="20px" fill="#5c940d" text-anchor="start" style="white-space: pre;" direction="ltr" dominant-baseline="text-before-edge"></text><text x="0" y="408" font-family="Cascadia, Segoe UI Emoji" font-size="20px" fill="#5c940d" text-anchor="start" style="white-space: pre;" direction="ltr" dominant-baseline="text-before-edge"></text><text x="0" y="432" font-family="Cascadia, Segoe UI Emoji" font-size="20px" fill="#5c940d" text-anchor="start" style="white-space: pre;" direction="ltr" dominant-baseline="text-before-edge"></text><text x="0" y="456" font-family="Cascadia, Segoe UI Emoji" font-size="20px" fill="#5c940d" text-anchor="start" style="white-space: pre;" direction="ltr" dominant-baseline="text-before-edge"></text><text x="0" y="480" font-family="Cascadia, Segoe UI Emoji" font-size="20px" fill="#5c940d" text-anchor="start" style="white-space: pre;" direction="ltr" dominant-baseline="text-before-edge">}</text></g><g stroke-linecap="round" transform="translate(29.644306182861328 258.5501217312283) rotate(0 211.7999420166015 47.5)"><path d="M23.75 0 M23.75 0 C118.37 4.76, 209.98 4.04, 399.85 0 M23.75 0 C126.37 1.61, 227.72 2.11, 399.85 0 M399.85 0 C416.06 -1.76, 425.32 5.76, 423.6 23.75 M399.85 0 C413.41 1.53, 427.46 5.91, 423.6 23.75 M423.6 23.75 C427.45 38.24, 423.37 50.96, 423.6 71.25 M423.6 23.75 C422.06 38.1, 424.64 54.84, 423.6 71.25 M423.6 71.25 C423.01 84.71, 418.2 97.61, 399.85 95 M423.6 71.25 C424.58 88.4, 412.52 94.15, 399.85 95 M399.85 95 C268.51 92.47, 141.05 94.38, 23.75 95 M399.85 95 C278.08 92.58, 155.75 92.58, 23.75 95 M23.75 95 C3.99 96.72, -0.66 85.66, 0 71.25 M23.75 95 C8.53 94.22, 2.39 84.28, 0 71.25 M0 71.25 C2.53 57.55, -0.34 38.59, 0 23.75 M0 71.25 C-0.72 53.64, -1.25 36.82, 0 23.75 M0 23.75 C3.72 9.47, 10.1 3.83, 23.75 0 M0 23.75 C-0.81 7.19, 12.49 0.53, 23.75 0" stroke="#c92a2a" stroke-width="1" fill="none"></path></g><g stroke-linecap="round" transform="translate(28.444324493408203 458.1500973171658) rotate(0 211.7999420166015 47.5)"><path d="M23.75 0 M23.75 0 C135.7 -2.94, 246.09 -1.81, 399.85 0 M23.75 0 C119.23 -1.5, 216.42 -0.39, 399.85 0 M399.85 0 C413.92 1.72, 421.44 5.94, 423.6 23.75 M399.85 0 C417.21 3.86, 421.59 6.2, 423.6 23.75 M423.6 23.75 C424.86 40.66, 425.1 60.08, 423.6 71.25 M423.6 23.75 C423.69 38.86, 425.46 51.49, 423.6 71.25 M423.6 71.25 C421.23 89.6, 418.29 95.86, 399.85 95 M423.6 71.25 C424.92 83.92, 414.83 97.09, 399.85 95 M399.85 95 C313.13 93.3, 228.43 92.92, 23.75 95 M399.85 95 C272.87 98.16, 146.31 96.25, 23.75 95 M23.75 95 C9.64 94.34, -1.42 87.62, 0 71.25 M23.75 95 C7.14 97.39, -2.81 89.75, 0 71.25 M0 71.25 C3.92 54.28, 1.96 39.53, 0 23.75 M0 71.25 C-0.95 55.33, -0.29 43.56, 0 23.75 M0 23.75 C1.55 10.1, 11.75 -0.7, 23.75 0 M0 23.75 C-0.73 12.49, 8.45 -2.68, 23.75 0" stroke="#c92a2a" stroke-width="1" fill="none"></path></g><g transform="translate(140.6348915100097 493.6500973171658) rotate(0 99.609375 12)"><text x="99.609375" y="0" font-family="Cascadia, Segoe UI Emoji" font-size="20px" fill="#000000" text-anchor="middle" style="white-space: pre;" direction="ltr" dominant-baseline="text-before-edge">app.mount('#app')</text></g><g stroke-linecap="round" transform="translate(195.93330764770508 276.7501491970486) rotate(0 60.5 29)"><path d="M14.5 0 M14.5 0 C44.57 0.26, 72.58 -1.1, 106.5 0 M14.5 0 C41.97 1.69, 70.87 2.37, 106.5 0 M106.5 0 C114.01 -1.98, 122.33 8.19, 121 14.5 M106.5 0 C114.16 -1.72, 124.5 1.15, 121 14.5 M121 14.5 C123.55 26.07, 121.1 39.39, 121 43.5 M121 14.5 C121.98 20.74, 119.64 28.83, 121 43.5 M121 43.5 C123.61 54.02, 117.31 55.25, 106.5 58 M121 43.5 C120.15 55.25, 112.96 55.56, 106.5 58 M106.5 58 C87.31 59.78, 63.65 56.99, 14.5 58 M106.5 58 C73.31 57.14, 42.33 58.77, 14.5 58 M14.5 58 C3.41 58.53, -0.68 55.24, 0 43.5 M14.5 58 C2.03 60.67, 2.88 50.23, 0 43.5 M0 43.5 C0.87 35.26, -0.04 25.07, 0 14.5 M0 43.5 C0.58 37.55, 0.81 28.98, 0 14.5 M0 14.5 C3.83 4.13, 4.2 3.97, 14.5 0 M0 14.5 C0.53 2.15, 0.71 -4.28, 14.5 0" stroke="#e67700" stroke-width="1" fill="none"></path></g><g transform="translate(203.69893264770508 293.7501491970486) rotate(0 52.734375 12)"><text x="52.734375" y="0" font-family="Cascadia, Segoe UI Emoji" font-size="20px" fill="#e67700" text-anchor="middle" style="white-space: pre;" direction="ltr" dominant-baseline="text-before-edge">createApp</text></g><g stroke-linecap="round" transform="translate(345.1801948547363 276.7501491970486) rotate(0 37 29)"><path d="M14.5 0 M14.5 0 C22.95 -2.22, 35.29 -3.73, 59.5 0 M14.5 0 C23.43 0.77, 33.05 -1.07, 59.5 0 M59.5 0 C70.5 3.36, 72.25 3.34, 74 14.5 M59.5 0 C72.67 -3.68, 77.6 7.15, 74 14.5 M74 14.5 C74.13 25.47, 71.34 29.29, 74 43.5 M74 14.5 C73.15 26.04, 75.64 35.49, 74 43.5 M74 43.5 C75.15 50.41, 68.43 59.82, 59.5 58 M74 43.5 C70.79 50.73, 66.44 57.79, 59.5 58 M59.5 58 C45.6 56.46, 30.92 56.89, 14.5 58 M59.5 58 C44.17 56.79, 26.4 57.38, 14.5 58 M14.5 58 C4.16 60.08, -2.44 55.49, 0 43.5 M14.5 58 C7.71 55.06, 3.59 56.97, 0 43.5 M0 43.5 C0.25 38.11, -1.43 25.49, 0 14.5 M0 43.5 C0.62 37.55, 1.76 29.07, 0 14.5 M0 14.5 C-0.63 8.81, 5.29 -2.33, 14.5 0 M0 14.5 C-4.13 0.55, 6.73 -4.56, 14.5 0" stroke="#0b7285" stroke-width="1" fill="none"></path></g><g transform="translate(364.6020698547363 293.7501491970486) rotate(0 17.578125 12)"><text x="17.578125" y="0" font-family="Cascadia, Segoe UI Emoji" font-size="20px" fill="#0b7285" text-anchor="middle" style="white-space: pre;" direction="ltr" dominant-baseline="text-before-edge">App</text></g><g transform="translate(47.04423904418945 293.7501491970486) rotate(0 70.3125 12)"><text x="0" y="0" font-family="Cascadia, Segoe UI Emoji" font-size="20px" fill="#000000" text-anchor="start" style="white-space: pre;" direction="ltr" dominant-baseline="text-before-edge">const app = </text></g><g transform="translate(325.1973762512207 293.7501491970486) rotate(0 5.859375 12)"><text x="0" y="0" font-family="Cascadia, Segoe UI Emoji" font-size="20px" fill="#000000" text-anchor="start" style="white-space: pre;" direction="ltr" dominant-baseline="text-before-edge">(</text></g><g transform="translate(427.44426345825195 293.7501491970486) rotate(0 5.859375 12)"><text x="0" y="0" font-family="Cascadia, Segoe UI Emoji" font-size="20px" fill="#000000" text-anchor="start" style="white-space: pre;" direction="ltr" dominant-baseline="text-before-edge">)</text></g><g mask="url(#mask-H4hkSa3ZgS4VNbbPX7OkU)" stroke-linecap="round"><g transform="translate(262.10331682797676 275.3500790066189) rotate(0 169.73693097526132 -70.03157891240932)"><path d="M-0.98 -0.69 C9.97 -21.88, 8.95 -105.33, 65.85 -128.33 C122.76 -151.33, 294.87 -137.16, 340.46 -138.71 M0.7 1.56 C11.5 -19.37, 8.42 -103.85, 64.96 -127.07 C121.51 -150.29, 294.24 -136.19, 339.96 -137.73" stroke="#364fc7" stroke-width="1" fill="none"></path></g><g transform="translate(262.10331682797676 275.3500790066189) rotate(0 169.73693097526132 -70.03157891240932)"><path d="M310.41 -127.86 C319.62 -129.97, 328.25 -134.83, 340.63 -136.05 M310.77 -127.27 C319.39 -130.98, 326.72 -133.08, 339.91 -136.99" stroke="#364fc7" stroke-width="1" fill="none"></path></g><g transform="translate(262.10331682797676 275.3500790066189) rotate(0 169.73693097526132 -70.03157891240932)"><path d="M310.83 -148.38 C319.7 -144.11, 328.21 -142.59, 340.63 -136.05 M311.18 -147.78 C319.62 -146.24, 326.85 -143.07, 339.91 -136.99" stroke="#364fc7" stroke-width="1" fill="none"></path></g></g><mask id="mask-H4hkSa3ZgS4VNbbPX7OkU"><rect x="0" y="0" fill="#fff" width="702.0442695617676" height="513.4141064759831"></rect><rect x="210.65681838989258" y="135.5500759548611" fill="#000" width="234.375" height="24" opacity="1"></rect></mask><g transform="translate(210.65681838989258 135.5500759548611) rotate(0 221.1834294133455 69.7684241393485)"><text x="117.1875" y="0" font-family="Cascadia, Segoe UI Emoji" font-size="20px" fill="#364fc7" text-anchor="middle" style="white-space: pre;" direction="ltr" dominant-baseline="text-before-edge">runtime-dom/index.ts</text></g><g stroke-linecap="round" transform="translate(603.0442695617676 59.55004543728296) rotate(0 386.5 101)"><path d="M32 0 M32 0 C186.29 0.08, 340.85 -0.66, 741 0 M32 0 C268.12 1.54, 504.22 1.55, 741 0 M741 0 C763.34 -0.48, 774.13 10.97, 773 32 M741 0 C762.22 1.7, 771.28 9.96, 773 32 M773 32 C772.61 82.17, 775.1 130.26, 773 170 M773 32 C772.5 76.66, 771.52 122.13, 773 170 M773 170 C772.91 192.16, 763.82 202.51, 741 202 M773 170 C773.84 190.32, 763.56 201.23, 741 202 M741 202 C486.19 199.09, 230.4 199.33, 32 202 M741 202 C540.55 200.52, 339.38 200.58, 32 202 M32 202 C12.32 202.13, 0.68 192.7, 0 170 M32 202 C10.92 204.01, -0.71 191.2, 0 170 M0 170 C0.4 137.59, 1.54 102.65, 0 32 M0 170 C-1.95 129.89, -2.3 91.98, 0 32 M0 32 C-1.98 12.58, 12.34 2, 32 0 M0 32 C-1.91 8.77, 8.64 1.19, 32 0" stroke="#364fc7" stroke-width="1" fill="none"></path></g><g transform="translate(608.0442695617676 64.55004543728296) rotate(0 357.421875 96)"><text x="0" y="0" font-family="Cascadia, Segoe UI Emoji" font-size="20px" fill="#364fc7" text-anchor="start" style="white-space: pre;" direction="ltr" dominant-baseline="text-before-edge">const app = ensureRenderer().createApp(...args)</text><text x="0" y="24" font-family="Cascadia, Segoe UI Emoji" font-size="20px" fill="#364fc7" text-anchor="start" style="white-space: pre;" direction="ltr" dominant-baseline="text-before-edge"></text><text x="0" y="48" font-family="Cascadia, Segoe UI Emoji" font-size="20px" fill="#364fc7" text-anchor="start" style="white-space: pre;" direction="ltr" dominant-baseline="text-before-edge">const { mount } = app</text><text x="0" y="72" font-family="Cascadia, Segoe UI Emoji" font-size="20px" fill="#364fc7" text-anchor="start" style="white-space: pre;" direction="ltr" dominant-baseline="text-before-edge"></text><text x="0" y="96" font-family="Cascadia, Segoe UI Emoji" font-size="20px" fill="#364fc7" text-anchor="start" style="white-space: pre;" direction="ltr" dominant-baseline="text-before-edge">app.mount = (containerOrSelector) =&gt; {</text><text x="0" y="120" font-family="Cascadia, Segoe UI Emoji" font-size="20px" fill="#364fc7" text-anchor="start" style="white-space: pre;" direction="ltr" dominant-baseline="text-before-edge">    const container = normalizeContainer(containerOrSelector)</text><text x="0" y="144" font-family="Cascadia, Segoe UI Emoji" font-size="20px" fill="#364fc7" text-anchor="start" style="white-space: pre;" direction="ltr" dominant-baseline="text-before-edge">    return mount(container, false, false)</text><text x="0" y="168" font-family="Cascadia, Segoe UI Emoji" font-size="20px" fill="#364fc7" text-anchor="start" style="white-space: pre;" direction="ltr" dominant-baseline="text-before-edge">}</text></g><g transform="translate(756.6441841125488 31.550075954861086) rotate(0 134.453125 12)"><text x="0" y="0" font-family="Cascadia, Segoe UI Emoji" font-size="20px" fill="#364fc7" text-anchor="start" style="white-space: pre;" direction="ltr" dominant-baseline="text-before-edge">web 环境下重写 mount 方法</text></g><g mask="url(#mask-zdRC8FxyWaUcyiFcZUd9U)" stroke-linecap="round"><g transform="translate(245.4443244934082 356.95011562771265) rotate(0 0.675942437723279 48.20665694586933)"><path d="M-0.65 -0.59 C-0.23 15.49, 1.71 80.98, 2 97.01 M1.21 1.71 C1.56 17.43, 1.46 79.59, 1.26 95.41" stroke="#364fc7" stroke-width="1" fill="none"></path></g><g transform="translate(245.4443244934082 356.95011562771265) rotate(0 0.675942437723279 48.20665694586933)"><path d="M-9.83 67.83 C-4.45 73.57, -4.29 83.2, -0.34 96.98 M-8.68 67.11 C-4.63 76.26, -2.14 87.45, 1.84 95.27" stroke="#364fc7" stroke-width="1" fill="none"></path></g><g transform="translate(245.4443244934082 356.95011562771265) rotate(0 0.675942437723279 48.20665694586933)"><path d="M10.7 67.95 C10.82 73.55, 5.72 83.14, -0.34 96.98 M11.84 67.23 C8.7 76.45, 4 87.6, 1.84 95.27" stroke="#364fc7" stroke-width="1" fill="none"></path></g></g><mask id="mask-zdRC8FxyWaUcyiFcZUd9U"><rect x="0" y="0" fill="#fff" width="347.0443000793457" height="552.9501156277126"></rect><rect x="206.24431228637695" y="392.95011562771265" fill="#000" width="80" height="24" opacity="1"></rect></mask><g transform="translate(206.24431228637707 392.95011562771265) rotate(0 39.87595464475453 12.206656945869327)"><text x="40" y="0" font-family="Cascadia, Segoe UI Emoji" font-size="20px" fill="#364fc7" text-anchor="middle" style="white-space: pre;" direction="ltr" dominant-baseline="text-before-edge">执行挂载</text></g><g stroke-linecap="round" transform="translate(746.2442817687988 59.550075954861086) rotate(0 94.79998779296875 18.800003051757812)"><path d="M9.4 0 M9.4 0 C53.11 -1.44, 92.71 0.95, 180.2 0 M9.4 0 C46.73 -0.3, 84.69 -0.91, 180.2 0 M180.2 0 C187.95 -1.49, 188.98 4.22, 189.6 9.4 M180.2 0 C187.8 -0.34, 188.24 4.58, 189.6 9.4 M189.6 9.4 C188.35 15.92, 190.49 21.82, 189.6 28.2 M189.6 9.4 C189.88 14.74, 189.73 19.03, 189.6 28.2 M189.6 28.2 C188.72 35.54, 185.8 38.8, 180.2 37.6 M189.6 28.2 C188.83 32.21, 187.46 37.22, 180.2 37.6 M180.2 37.6 C136.08 36.09, 91.04 38.56, 9.4 37.6 M180.2 37.6 C139.93 39.35, 100.22 39.12, 9.4 37.6 M9.4 37.6 C4.88 36.98, -0.12 33.32, 0 28.2 M9.4 37.6 C3.76 39.74, 0.89 35.72, 0 28.2 M0 28.2 C1.9 20.97, -1.06 11.63, 0 9.4 M0 28.2 C0.82 25.09, 0.86 19.64, 0 9.4 M0 9.4 C-1.65 1.37, 4.17 1.48, 9.4 0 M0 9.4 C-1.14 4.32, 3.33 -0.42, 9.4 0" stroke="#c92a2a" stroke-width="1" fill="none"></path></g><g stroke-linecap="round" transform="translate(947.0442085266113 59.55004543728296) rotate(0 105.5999755859375 17.600006103515625)"><path d="M8.8 0 M8.8 0 C56.42 -2.37, 107.31 -3.23, 202.4 0 M8.8 0 C82.58 0.61, 155.17 1.2, 202.4 0 M202.4 0 C206.77 -0.62, 212.29 4.09, 211.2 8.8 M202.4 0 C207.93 -1.36, 212.65 4.43, 211.2 8.8 M211.2 8.8 C210.93 15.26, 210.02 19.18, 211.2 26.4 M211.2 8.8 C211.84 13.26, 211.51 16.89, 211.2 26.4 M211.2 26.4 C212.27 31.6, 209.46 34.53, 202.4 35.2 M211.2 26.4 C208.94 33.26, 207.89 34.38, 202.4 35.2 M202.4 35.2 C140.51 37.37, 82.32 34.93, 8.8 35.2 M202.4 35.2 C129.54 36.01, 56.11 36.2, 8.8 35.2 M8.8 35.2 C2.32 35.08, -1.14 32.81, 0 26.4 M8.8 35.2 C5.07 36.09, 1.25 34.47, 0 26.4 M0 26.4 C0.23 20.4, -1.55 14.82, 0 8.8 M0 26.4 C0.91 21.28, -0.55 13.66, 0 8.8 M0 8.8 C-1.76 3.97, 4.42 -0.99, 8.8 0 M0 8.8 C1.19 3.13, 2.51 1.6, 8.8 0" stroke="#c92a2a" stroke-width="1" fill="none"></path></g><g stroke-linecap="round" transform="translate(619.1331503126356 339.19451904296875) rotate(0 158 29)"><path d="M14.5 0 M14.5 0 C109.58 2.1, 204.57 2.13, 301.5 0 M14.5 0 C115.18 -1.26, 216.2 -1.79, 301.5 0 M301.5 0 C310.55 1.09, 317.16 4.54, 316 14.5 M301.5 0 C309.8 1.45, 317.5 5.33, 316 14.5 M316 14.5 C316.71 22.64, 314.74 32.38, 316 43.5 M316 14.5 C316.37 23.43, 315.68 32.17, 316 43.5 M316 43.5 C315.33 54.36, 310.5 56.04, 301.5 58 M316 43.5 C316.99 52.79, 310.35 58.31, 301.5 58 M301.5 58 C221.14 57.62, 138.06 57.86, 14.5 58 M301.5 58 C192.16 58.82, 82.44 58.5, 14.5 58 M14.5 58 C4.71 56.86, 0.55 55.03, 0 43.5 M14.5 58 C5.73 59.25, 2.2 52.76, 0 43.5 M0 43.5 C-1.46 33.46, -2.15 27.84, 0 14.5 M0 43.5 C0.72 36.85, -1.1 30.97, 0 14.5 M0 14.5 C1.03 6.32, 3.85 1.03, 14.5 0 M0 14.5 C0.19 4.41, 6.43 0.88, 14.5 0" stroke="#c92a2a" stroke-width="1" fill="none"></path></g><g transform="translate(642.3675253126356 356.19451904296875) rotate(0 134.765625 12)"><text x="134.765625" y="0" font-family="Cascadia, Segoe UI Emoji" font-size="20px" fill="#c92a2a" text-anchor="middle" style="white-space: pre;" direction="ltr" dominant-baseline="text-before-edge">return createRenderer()</text></g><g stroke-linecap="round" transform="translate(607.1775432162813 477.81677924262146) rotate(0 176.5 29)"><path d="M14.5 0 M14.5 0 C96.44 -0.63, 181.3 -2.04, 338.5 0 M14.5 0 C130.49 -0.41, 245.24 0.49, 338.5 0 M338.5 0 C349.32 -0.29, 351.81 6.09, 353 14.5 M338.5 0 C349.67 0.49, 353.66 3.25, 353 14.5 M353 14.5 C352.07 21.48, 353.04 31.65, 353 43.5 M353 14.5 C352.63 25.89, 352.74 36.8, 353 43.5 M353 43.5 C352.33 51.21, 349.03 57.67, 338.5 58 M353 43.5 C352.18 53.47, 347.78 59.19, 338.5 58 M338.5 58 C260.19 60.49, 184.8 59.49, 14.5 58 M338.5 58 C230.95 58.03, 122.14 57.85, 14.5 58 M14.5 58 C5.38 59.86, 0.78 54.26, 0 43.5 M14.5 58 C7.04 57.6, -0.36 55.45, 0 43.5 M0 43.5 C-1.69 35.29, -1.81 27.35, 0 14.5 M0 43.5 C-1.12 31.5, 0.23 21.99, 0 14.5 M0 14.5 C-0.99 5.86, 5 -0.36, 14.5 0 M0 14.5 C1.6 5.71, 5.54 1.77, 14.5 0" stroke="#862e9c" stroke-width="1" fill="none"></path></g><g transform="translate(625.4744182162813 494.81677924262146) rotate(0 158.203125 12)"><text x="158.203125" y="0" font-family="Cascadia, Segoe UI Emoji" font-size="20px" fill="#862e9c" text-anchor="middle" style="white-space: pre;" direction="ltr" dominant-baseline="text-before-edge">return baseCreateRenderer()</text></g><g stroke-linecap="round" transform="translate(720.733186933729 351.9945068359375) rotate(0 96.4000244140625 15.600006103515625)"><path d="M7.8 0 M7.8 0 C75.45 -1.86, 142.21 -1.08, 185 0 M7.8 0 C59.78 1.87, 112.96 1.18, 185 0 M185 0 C189.01 1.26, 194.1 3.03, 192.8 7.8 M185 0 C190.86 -1.58, 192.38 3.64, 192.8 7.8 M192.8 7.8 C192.65 12.04, 193.87 15.38, 192.8 23.4 M192.8 7.8 C192.47 13.52, 192.47 17.53, 192.8 23.4 M192.8 23.4 C193.66 28.27, 189.49 31.47, 185 31.2 M192.8 23.4 C192.41 29.79, 188.8 32.53, 185 31.2 M185 31.2 C122.4 32.71, 57.17 33.95, 7.8 31.2 M185 31.2 C129.82 30.08, 75.04 31.58, 7.8 31.2 M7.8 31.2 C3.38 32.29, 1.92 28.25, 0 23.4 M7.8 31.2 C2.24 33.49, 0.26 27.26, 0 23.4 M0 23.4 C-1.4 21.61, 1.45 18.4, 0 7.8 M0 23.4 C0.53 20.59, -0.26 17.03, 0 7.8 M0 7.8 C0.17 2.24, 3.99 0.76, 7.8 0 M0 7.8 C0.71 4.37, 1.36 -0.36, 7.8 0" stroke="#862e9c" stroke-width="1" fill="none"></path></g><g mask="url(#mask-NYGfY14fDXt956SKY1y-K)" stroke-linecap="round"><g transform="translate(834.2442817687988 98.75005764431421) rotate(0 8.626326207755184 118.92314834747879)"><path d="M0.6 -0.29 C19.32 27.96, 127.37 130.67, 111.32 170.4 C95.27 210.14, -61.05 227.05, -95.69 238.13" stroke="#c92a2a" stroke-width="1.5" fill="none" stroke-dasharray="8 9"></path></g><g transform="translate(834.2442817687988 98.75005764431421) rotate(0 8.626326207755184 118.92314834747879)"><path d="M-70.7 223.41 C-75.4 225.8, -79.82 227.89, -96.31 239.22" stroke="#c92a2a" stroke-width="1.5" fill="none"></path></g><g transform="translate(834.2442817687988 98.75005764431421) rotate(0 8.626326207755184 118.92314834747879)"><path d="M-66.46 243.49 C-72.25 241.48, -77.61 239.15, -96.31 239.22" stroke="#c92a2a" stroke-width="1.5" fill="none"></path></g></g><mask id="mask-NYGfY14fDXt956SKY1y-K"><rect x="0" y="0" fill="#fff" width="1140.5184167463253" height="435.9945068359375"></rect><rect x="863.8731405470107" y="256.9722357855903" fill="#000" width="162.03125" height="24" opacity="1"></rect></mask><g transform="translate(863.8731405470108 256.9722357855903) rotate(0 -21.002532570456722 -39.29902979379733)"><text x="81.015625" y="0" font-family="Cascadia, Segoe UI Emoji" font-size="20px" fill="#c92a2a" text-anchor="middle" style="white-space: pre;" direction="ltr" dominant-baseline="text-before-edge">确认存在 render</text></g><g mask="url(#mask-R4eGpGK5gcBq3XFuEPYhY)" stroke-linecap="round"><g transform="translate(809.9707821560689 385.594482421875) rotate(0 -14.024790730970167 44.845378873952484)"><path d="M0.68 0.18 C-4.21 15.15, -23.69 74.83, -28.73 89.51" stroke="#c92a2a" stroke-width="1.5" fill="none" stroke-dasharray="8 9"></path></g><g transform="translate(809.9707821560689 385.594482421875) rotate(0 -14.024790730970167 44.845378873952484)"><path d="M-29.24 59.42 C-27.85 68.53, -29.66 81.62, -27.57 89.22" stroke="#c92a2a" stroke-width="1.5" fill="none"></path></g><g transform="translate(809.9707821560689 385.594482421875) rotate(0 -14.024790730970167 44.845378873952484)"><path d="M-9.77 65.91 C-15.19 72.86, -23.82 83.67, -27.57 89.22" stroke="#c92a2a" stroke-width="1.5" fill="none"></path></g></g><mask id="mask-R4eGpGK5gcBq3XFuEPYhY"><rect x="0" y="0" fill="#fff" width="938.6384462866415" height="574.2167426215277"></rect><rect x="695.6369500907826" y="417.9056125217013" fill="#000" width="200" height="24" opacity="1"></rect></mask><g transform="translate(695.6369500907828 417.9056125217013) rotate(0 100.30904133431612 12.534248774126183)"><text x="100" y="0" font-family="Cascadia, Segoe UI Emoji" font-size="20px" fill="#364fc7" text-anchor="middle" style="white-space: pre;" direction="ltr" dominant-baseline="text-before-edge">根据引用环境设置参数</text></g><g stroke-linecap="round" transform="translate(703.5776286655 483.8167182074652) rotate(0 121.60003662109375 21.600006103515625)"><path d="M10.8 0 M10.8 0 C91.06 -1.2, 168.23 1.03, 232.4 0 M10.8 0 C90.65 1.7, 169.6 1.38, 232.4 0 M232.4 0 C238.22 -0.37, 244.11 2.21, 243.2 10.8 M232.4 0 C238.38 -1.36, 243.1 4.55, 243.2 10.8 M243.2 10.8 C242.37 19.95, 242.58 28.16, 243.2 32.4 M243.2 10.8 C242.82 16.2, 243.12 22.14, 243.2 32.4 M243.2 32.4 C244.24 38.38, 240.76 44.45, 232.4 43.2 M243.2 32.4 C241.73 41.4, 241.5 43.35, 232.4 43.2 M232.4 43.2 C159.94 42.88, 84.35 42.42, 10.8 43.2 M232.4 43.2 C160.35 44.77, 87.21 43.81, 10.8 43.2 M10.8 43.2 C5.59 43.43, -1.17 37.81, 0 32.4 M10.8 43.2 C1.46 44.15, -2.28 41.8, 0 32.4 M0 32.4 C-1.87 22.35, 0.82 17.31, 0 10.8 M0 32.4 C-0.29 27.68, 0.27 21.88, 0 10.8 M0 10.8 C1.54 2.52, 3.29 0.55, 10.8 0 M0 10.8 C-1.77 2.48, 5.42 1.31, 10.8 0" stroke="#087f5b" stroke-width="1" fill="none"></path></g><g stroke-linecap="round" transform="translate(609.8887045118545 636.2612575954862) rotate(0 295.5 78)"><path d="M32 0 M32 0 C197.47 -1.81, 364.57 -1.1, 559 0 M32 0 C182.61 -1.24, 332.81 -1.6, 559 0 M559 0 C579.96 0.91, 589.61 9.61, 591 32 M559 0 C578.97 -0.1, 591.95 12.37, 591 32 M591 32 C592.4 61.27, 592.53 91.22, 591 124 M591 32 C591.04 50.71, 591.23 69.67, 591 124 M591 124 C589.78 146.49, 581.59 154.72, 559 156 M591 124 C592.8 147.24, 580.48 156.78, 559 156 M559 156 C364.71 157.79, 170.46 158.06, 32 156 M559 156 C352.29 157.08, 144.75 157.55, 32 156 M32 156 C10.9 154.83, -1.79 143.47, 0 124 M32 156 C11.61 153.72, 2.2 147.26, 0 124 M0 124 C-1 88.24, 2.24 49.42, 0 32 M0 124 C0.62 92.04, 0.23 60.08, 0 32 M0 32 C-1.08 10.35, 11.22 -1.54, 32 0 M0 32 C-1.12 12.48, 11.97 -2.09, 32 0" stroke="#087f5b" stroke-width="1" fill="none"></path></g><g transform="translate(614.8887045118545 654.2612575954862) rotate(0 287.109375 60)"><text x="0" y="0" font-family="Cascadia, Segoe UI Emoji" font-size="20px" fill="#087f5b" text-anchor="start" style="white-space: pre;" direction="ltr" dominant-baseline="text-before-edge">return {</text><text x="0" y="24" font-family="Cascadia, Segoe UI Emoji" font-size="20px" fill="#087f5b" text-anchor="start" style="white-space: pre;" direction="ltr" dominant-baseline="text-before-edge">    render: vnode =&gt; vnode ? patch() : unmount(),</text><text x="0" y="48" font-family="Cascadia, Segoe UI Emoji" font-size="20px" fill="#087f5b" text-anchor="start" style="white-space: pre;" direction="ltr" dominant-baseline="text-before-edge">    hydrate,</text><text x="0" y="72" font-family="Cascadia, Segoe UI Emoji" font-size="20px" fill="#087f5b" text-anchor="start" style="white-space: pre;" direction="ltr" dominant-baseline="text-before-edge">    createApp: createAppAPI(render, hydrate) </text><text x="0" y="96" font-family="Cascadia, Segoe UI Emoji" font-size="20px" fill="#087f5b" text-anchor="start" style="white-space: pre;" direction="ltr" dominant-baseline="text-before-edge">}</text></g><g mask="url(#mask-96AbJ3WWKB6xDYQkym3mm)" stroke-linecap="round"><g transform="translate(825.7844455197437 529.4167073567708) rotate(0 6.422741651573318 53.12739894899238)"><path d="M-0.37 0.65 C1.68 18.4, 11.19 87.95, 13.22 105.6" stroke="#087f5b" stroke-width="1.5" fill="none" stroke-dasharray="8 9"></path></g><g transform="translate(825.7844455197437 529.4167073567708) rotate(0 6.422741651573318 53.12739894899238)"><path d="M0.57 80.09 C4.13 87.76, 10.81 100.22, 13.64 106.17" stroke="#087f5b" stroke-width="1.5" fill="none"></path></g><g transform="translate(825.7844455197437 529.4167073567708) rotate(0 6.422741651573318 53.12739894899238)"><path d="M20.93 77.5 C16.85 86.08, 15.93 99.51, 13.64 106.17" stroke="#087f5b" stroke-width="1.5" fill="none"></path></g></g><mask id="mask-96AbJ3WWKB6xDYQkym3mm"><rect x="0" y="0" fill="#fff" width="938.3053016760205" height="735.1944986979169"></rect><rect x="772.0448735978821" y="570.3056030273439" fill="#000" width="120" height="24" opacity="1"></rect></mask><g transform="translate(772.0448735978821 570.3056030273439) rotate(0 60.16231357343494 12.238503278419273)"><text x="60" y="0" font-family="Cascadia, Segoe UI Emoji" font-size="20px" fill="#364fc7" text-anchor="middle" style="white-space: pre;" direction="ltr" dominant-baseline="text-before-edge">设置渲染方法</text></g><g stroke-linecap="round" transform="translate(781.3333320617676 718.0833604600692) rotate(0 176.8888685438368 19.555562337239678)"><path d="M9.78 0 M9.78 0 C99.54 -2.11, 190.55 -0.43, 344 0 M9.78 0 C117.07 1.86, 224.15 1.2, 344 0 M344 0 C349.33 -0.09, 354.6 4.74, 353.78 9.78 M344 0 C351.1 0.84, 352.76 4.49, 353.78 9.78 M353.78 9.78 C351.98 15.83, 353.57 19.5, 353.78 29.33 M353.78 9.78 C353.15 16.47, 354.36 21.41, 353.78 29.33 M353.78 29.33 C355.34 37.51, 350.65 39.79, 344 39.11 M353.78 29.33 C355.35 36.11, 352.53 38.4, 344 39.11 M344 39.11 C246.99 40.25, 148.2 41.02, 9.78 39.11 M344 39.11 C249.66 40.96, 154.56 40.73, 9.78 39.11 M9.78 39.11 C4.08 37.13, 1.91 37.52, 0 29.33 M9.78 39.11 C5.56 37.21, -1.9 33.83, 0 29.33 M0 29.33 C0.86 22.62, -0.5 16.94, 0 9.78 M0 29.33 C-0.59 22.57, 0.21 15.35, 0 9.78 M0 9.78 C-0.98 4.84, 4.39 -1.81, 9.78 0 M0 9.78 C1.24 5.28, 3.8 -1.09, 9.78 0" stroke="#c92a2a" stroke-width="1" fill="none"></path></g><g mask="url(#mask-YlInsgELkiqA0yzQJTqnS)" stroke-linecap="round"><g transform="translate(1139.5556492275662 731.6988132603555) rotate(0 81.46127100519874 -318.1022357684086)"><path d="M-0.18 -0.71 C32.43 -25.04, 201.87 -39.48, 196.31 -145.28 C190.75 -251.07, 4.96 -553.7, -33.52 -635.49" stroke="#5f3dc4" stroke-width="1.5" fill="none" stroke-dasharray="8 9"></path></g><g transform="translate(1139.5556492275662 731.6988132603555) rotate(0 81.46127100519874 -318.1022357684086)"><path d="M-12.32 -614.26 C-17.88 -622.21, -26.55 -631.09, -33.89 -634.59" stroke="#5f3dc4" stroke-width="1.5" fill="none"></path></g><g transform="translate(1139.5556492275662 731.6988132603555) rotate(0 81.46127100519874 -318.1022357684086)"><path d="M-30.4 -604.55 C-29.61 -615.91, -31.86 -628.23, -33.89 -634.59" stroke="#5f3dc4" stroke-width="1.5" fill="none"></path></g></g><mask id="mask-YlInsgELkiqA0yzQJTqnS"><rect x="0" y="0" fill="#fff" width="1468.8890775044754" height="1467.5364543744436"></rect><rect x="1235.5018297831216" y="561.6389702690974" fill="#000" width="199.21875" height="48" opacity="1"></rect></mask><g transform="translate(1235.5018297831216 561.6389702690974) rotate(0 -14.48490955035669 -148.04239277715044)"><text x="99.609375" y="0" font-family="Cascadia, Segoe UI Emoji" font-size="20px" fill="#5f3dc4" text-anchor="middle" style="white-space: pre;" direction="ltr" dominant-baseline="text-before-edge">return createApp </text><text x="99.609375" y="24" font-family="Cascadia, Segoe UI Emoji" font-size="20px" fill="#5f3dc4" text-anchor="middle" style="white-space: pre;" direction="ltr" dominant-baseline="text-before-edge">方法</text></g><g mask="url(#mask-WLYcm7X4KZXuuKcxfoX02)" stroke-linecap="round"><g transform="translate(1160.1331028408476 73.38665465761892) rotate(0 164.34260871152583 126.87057076243873)"><path d="M0.75 0.78 C25.1 6.93, 91.61 -5.78, 145.9 36.15 C200.2 78.09, 296.2 216.45, 326.53 252.39 M-0.31 0.15 C23.92 5.98, 90.2 -8.03, 145.09 34.21 C199.97 76.45, 298.44 217.22, 328.99 253.59" stroke="#5c940d" stroke-width="1" fill="none"></path></g><g transform="translate(1160.1331028408476 73.38665465761892) rotate(0 164.34260871152583 126.87057076243873)"><path d="M304.95 237.98 C311.35 240.6, 317.64 247.45, 327.6 252.53 M304.38 237.81 C310.1 240.87, 316.38 244.84, 329.59 253.26" stroke="#5c940d" stroke-width="1" fill="none"></path></g><g transform="translate(1160.1331028408476 73.38665465761892) rotate(0 164.34260871152583 126.87057076243873)"><path d="M321.19 225.44 C322.89 231.73, 324.54 242.17, 327.6 252.53 M320.62 225.27 C322.43 231.41, 324.79 238.4, 329.59 253.26" stroke="#5c940d" stroke-width="1" fill="none"></path></g></g><mask id="mask-WLYcm7X4KZXuuKcxfoX02"><rect x="0" y="0" fill="#fff" width="1587.491944025434" height="426.0003892235587"></rect><rect x="1236.4808336893716" y="97.19445461697052" fill="#000" width="138.59375" height="24" opacity="1"></rect></mask><g transform="translate(1236.4808336893716 97.19445461697046) rotate(0 87.99487786300188 103.06277080308713)"><text x="69.296875" y="0" font-family="Cascadia, Segoe UI Emoji" font-size="20px" fill="#5c940d" text-anchor="middle" style="white-space: pre;" direction="ltr" dominant-baseline="text-before-edge">创建 app 对象</text></g><g stroke-linecap="round"><g transform="translate(1588.9523118639752 385.3848799448165) rotate(0 -312.29760571596995 169.21418729870925)"><path d="M0.26 0.34 C-89.42 10.29, -433.15 4.19, -537.33 60.48 C-641.52 116.77, -610.07 291.8, -624.85 338.08" stroke="#c92a2a" stroke-width="2.5" fill="none" stroke-dasharray="1.5 8"></path></g><g transform="translate(1588.9523118639752 385.3848799448165) rotate(0 -312.29760571596995 169.21418729870925)"><path d="M-632.19 307.77 C-630.08 320.54, -628.23 329.07, -626.04 337.99" stroke="#c92a2a" stroke-width="2.5" fill="none" stroke-dasharray="1.5 6"></path></g><g transform="translate(1588.9523118639752 385.3848799448165) rotate(0 -312.29760571596995 169.21418729870925)"><path d="M-611.74 309.45 C-617.06 321.65, -622.63 329.57, -626.04 337.99" stroke="#c92a2a" stroke-width="2.5" fill="none" stroke-dasharray="1.5 6"></path></g></g><mask></mask><g stroke-linecap="round"><g transform="translate(1595.854084327925 504.14650110411674) rotate(0 -316.8398531913882 80.52682388799644)"><path d="M0.34 -0.83 C-89.8 -9.86, -434.35 -91.58, -540.08 -53.96 C-645.8 -16.35, -618.39 178.29, -634.02 224.86" stroke="#c92a2a" stroke-width="2.5" fill="none" stroke-dasharray="1.5 8"></path></g><g transform="translate(1595.854084327925 504.14650110411674) rotate(0 -316.8398531913882 80.52682388799644)"><path d="M-642.87 195.43 C-637.79 205, -637.04 215.82, -634.11 225.68" stroke="#c92a2a" stroke-width="2.5" fill="none" stroke-dasharray="1.5 6"></path></g><g transform="translate(1595.854084327925 504.14650110411674) rotate(0 -316.8398531913882 80.52682388799644)"><path d="M-622.44 197.43 C-624.83 206.32, -631.53 216.42, -634.11 225.68" stroke="#c92a2a" stroke-width="2.5" fill="none" stroke-dasharray="1.5 6"></path></g></g><mask></mask><g transform="translate(993.7779257032603 509.19447157118066) rotate(0 105.15625 24)"><text x="0" y="0" font-family="Cascadia, Segoe UI Emoji" font-size="20px" fill="#d9480f" text-anchor="start" style="white-space: pre;" direction="ltr" dominant-baseline="text-before-edge">调用上文创建的render</text><text x="0" y="24" font-family="Cascadia, Segoe UI Emoji" font-size="20px" fill="#d9480f" text-anchor="start" style="white-space: pre;" direction="ltr" dominant-baseline="text-before-edge">生成 vnode 及渲染</text></g><g stroke-linecap="round"><g transform="translate(955.0000190734863 730.9999847412108) rotate(0 -110.96609408967197 -17.7546809125692)"><path d="M-0.22 0.54 C-24.92 -2.09, -110.92 -10.54, -147.84 -16.64 C-184.75 -22.74, -209.6 -32.98, -221.71 -36.05" stroke="#364fc7" stroke-width="2.5" fill="none" stroke-dasharray="8 10"></path></g><g transform="translate(955.0000190734863 730.9999847412108) rotate(0 -110.96609408967197 -17.7546809125692)"><path d="M-190.84 -38.98 C-202.67 -38.32, -211.55 -35.81, -220.23 -35.54" stroke="#364fc7" stroke-width="2.5" fill="none"></path></g><g transform="translate(955.0000190734863 730.9999847412108) rotate(0 -110.96609408967197 -17.7546809125692)"><path d="M-196.87 -19.36 C-206.58 -25.14, -213.48 -29.08, -220.23 -35.54" stroke="#364fc7" stroke-width="2.5" fill="none"></path></g></g><mask></mask><g stroke-linecap="round" transform="translate(10 10) rotate(0 1081.0000923701696 402.5)"><path d="M32 0 M32 0 C516.49 -4.23, 1001.63 -3.85, 2130 0 M2130 0 C2152.16 1.48, 2162.51 11.4, 2162 32 M2162 32 C2164.06 221.29, 2162.8 411.47, 2162 773 M2162 773 C2161.67 793.62, 2151.6 804.66, 2130 805 M2130 805 C1392.23 809.36, 654.08 810.53, 32 805 M32 805 C10.79 805.68, 1.36 794.55, 0 773 M0 773 C0.46 486.14, 1.66 199.16, 0 32 M0 32 C1.09 12.58, 10.32 -0.32, 32 0" stroke="#364fc7" stroke-width="2.5" fill="none" stroke-dasharray="8 10"></path></g><g stroke-linecap="round" transform="translate(10.00017438616078 815.1429694039479) rotate(0 1081.0000051770892 40.14277594430098)"><path d="M20.07 0 M20.07 0 C617.01 5.44, 1214.75 6.25, 2141.93 0 M2141.93 0 C2156.79 0.51, 2162.73 5.81, 2162 20.07 M2162 20.07 C2161.2 32.3, 2162.73 48.12, 2162 60.21 M2162 60.21 C2161.29 73.86, 2154.97 81.32, 2141.93 80.29 M2141.93 80.29 C1634.37 86.22, 1128.5 85.65, 20.07 80.29 M20.07 80.29 C7.37 81.65, 0.22 75.34, 0 60.21 M0 60.21 C0.57 51.27, 0.8 39.69, 0 20.07 M0 20.07 C1.92 6.34, 6.37 1.99, 20.07 0" stroke="#364fc7" stroke-width="2.5" fill="none" stroke-dasharray="8 10"></path></g><g transform="translate(55.000019073486555 849.1071101597375) rotate(0 937.03125 12)"><text x="0" y="0" font-family="Cascadia, Segoe UI Emoji" font-size="20px" fill="#364fc7" text-anchor="start" style="white-space: pre;" direction="ltr" dominant-baseline="text-before-edge">所以，在 web 非 SSR 的情况下，app.mount('#app') 的过程就是 查询到 id 为 app 的 dom 元素，将 根组件 App.vue 转换为 vnode，最后利用 patch 函数将生成的 vnode 渲染到 dom 元素上。</text></g></svg>